<svg xmlns="http://www.w3.org/2000/svg" width="48" height="48" viewBox="0 0 48 48" fill="none">
  <path d="M42.6635 44.7772H37.3294L37.3134 43.4258C37.3187 43.3881 37.308 39.9802 36.9396 34.7687C36.4911 28.4266 35.8503 22.483 28.5513 17.8691L29.7794 16.5554C33.7199 18.9243 37.0998 22.2084 38.7337 25.0026C40.8534 28.6366 41.5796 30.5694 42.215 33.9289C43.2989 39.6141 42.6902 44.5941 42.6635 44.7772Z" fill="#755E49"/>
  <path d="M26.6405 43.3697C26.6405 44.1234 26.5711 44.8556 26.4376 45.5663H4.79665C4.66316 44.8556 4.59375 44.1181 4.59375 43.3697C4.59375 42.0668 4.80733 40.8124 5.19177 39.6441C6.68149 35.1702 10.7876 31.9561 15.6145 31.9561C20.4413 31.9561 24.5474 35.1702 26.0371 39.6441C26.4322 40.8124 26.6405 42.0668 26.6405 43.3697Z" fill="#FF9D00"/>
  <path d="M47.8418 45.0467C47.8418 45.865 47.5107 46.6026 46.9821 47.141C46.4535 47.6794 45.7167 48.0078 44.9051 48.0078H2.93672C1.31351 48.0078 -5.00577e-10 46.6834 0 45.0467C0 44.2284 0.331048 43.4908 0.859657 42.9524C1.39361 42.4194 2.12512 42.0856 2.93672 42.0856H44.9051C46.5283 42.0856 47.8418 43.41 47.8418 45.0467Z" fill="#00B7FF"/>
  <path d="M47.4713 18.4458C47.9946 18.4458 48.1975 17.579 47.765 17.2129C46.2059 15.8885 43.1731 13.9719 38.7039 13.945C34.2027 13.9127 31.1806 15.8885 29.6481 17.2398C29.221 17.6167 29.4292 18.4673 29.9472 18.4673L47.4713 18.4458Z" fill="#02C652"/>
  <path d="M42.5184 6.28235C42.8868 5.91087 42.4277 5.15176 41.8617 5.20021C39.8273 5.37788 36.3406 6.18544 33.1636 9.3511C29.9599 12.5383 29.2071 16.0862 29.0683 18.1374C29.0309 18.7081 29.7731 19.1657 30.1415 18.7942L42.5184 6.28235Z" fill="#02C652"/>
  <path d="M30.7762 18.0587C31.1447 17.6872 30.6855 16.9281 30.1195 16.9766C28.0851 17.1542 24.5984 17.9618 21.4215 21.1275C18.2178 24.3147 17.4649 27.8626 17.3261 29.9138C17.2887 30.4845 18.0309 30.9421 18.3993 30.5706L30.7762 18.0587Z" fill="#02C652"/>
  <path d="M31.2577 0.533173C31.2577 0.00556259 30.398 -0.199021 30.0349 0.237065C28.7214 1.80913 26.8205 4.86711 26.7938 9.37333C26.7618 13.9119 28.7214 16.9591 30.0616 18.5042C30.4354 18.9349 31.279 18.7249 31.279 18.2027L31.2577 0.533173Z" fill="#02C652"/>
  <path d="M31.2577 17.0827C31.2577 16.5551 30.398 16.3505 30.0349 16.7866C28.7214 18.3587 26.8205 21.4167 26.7938 25.9229C26.7618 30.4614 28.7214 33.5086 30.0616 35.0538C30.4354 35.4845 31.279 35.2745 31.279 34.7523L31.2577 17.0827Z" fill="#02C652"/>
  <path d="M30.5026 18.5806C31.0259 18.5806 31.2288 17.7138 30.7963 17.3477C29.2371 16.0233 26.2043 14.1067 21.7352 14.0797C17.234 14.0474 14.2118 16.0233 12.6794 17.3746C12.2522 17.7515 12.4605 18.6021 12.9784 18.6021L30.5026 18.5806Z" fill="#02C652"/>
</svg>