<svg xmlns="http://www.w3.org/2000/svg" width="78" height="78" viewBox="0 0 78 78" fill="none">
  <path d="M39.2527 77.4064C60.5268 77.2041 77.6088 59.7941 77.4065 38.5201C77.2042 17.246 59.7941 0.164024 38.5201 0.36634C17.246 0.568656 0.16401 17.9787 0.366326 39.2527C0.568642 60.5268 17.9787 77.6087 39.2527 77.4064Z" fill="#ADEBF6"/>
  <path d="M69.2948 22.5458H59.5158C58.7406 22.5458 58.1443 23.1421 58.1443 23.9173V24.2751C58.1443 25.0502 58.7406 25.6465 59.5158 25.6465H69.2948C70.07 25.6465 70.6663 25.0502 70.6663 24.2751V23.9173C70.6663 23.2017 70.07 22.5458 69.2948 22.5458ZM67.029 28.5683H52.1814C51.3467 28.5683 50.6311 29.2839 50.6311 30.1187C50.6311 30.9535 51.3467 31.669 52.1814 31.669H67.029C67.8638 31.669 68.5793 30.9535 68.5793 30.1187C68.5793 29.2839 67.8638 28.5683 67.029 28.5683ZM72.8726 28.5683H70.6067C69.7719 28.5683 69.0563 29.2839 69.0563 30.1187C69.0563 30.9535 69.7719 31.669 70.6067 31.669H72.8726C73.7074 31.669 74.4229 30.9535 74.4229 30.1187C74.4229 29.2839 73.7074 28.5683 72.8726 28.5683Z" fill="#CFDBE5"/>
  <path d="M67.4462 25.5869H59.933C60.7082 25.5869 61.3044 26.1832 61.3044 26.9584V27.3162C61.3044 28.0913 60.7082 28.6876 59.933 28.6876H67.4462C66.671 28.6876 66.0747 28.0913 66.0747 27.3162V26.9584C66.0747 26.1832 66.671 25.5869 67.4462 25.5869ZM36.7375 7.81763H26.9584C26.1832 7.81763 25.5869 8.41391 25.5869 9.18908V9.54685C25.5869 10.322 26.1832 10.9183 26.9584 10.9183H36.7375C37.5126 10.9183 38.1089 10.322 38.1089 9.54685V9.18908C38.1089 8.41391 37.453 7.81763 36.7375 7.81763ZM34.412 13.8401H19.6241C18.7893 13.8401 18.0737 14.5557 18.0737 15.3905C18.0737 16.2253 18.7893 16.9408 19.6241 16.9408H34.412C35.2468 16.9408 35.9623 16.2253 35.9623 15.3905C35.9623 14.5557 35.3064 13.8401 34.412 13.8401ZM40.2556 13.8401H37.9897C37.1549 13.8401 36.4393 14.5557 36.4393 15.3905C36.4393 16.2253 37.1549 16.9408 37.9897 16.9408H40.2556C41.0904 16.9408 41.8059 16.2253 41.8059 15.3905C41.8059 14.5557 41.15 13.8401 40.2556 13.8401Z" fill="#CFDBE5"/>
  <path d="M34.8866 10.8586H27.3734C28.1486 10.8586 28.7449 11.4549 28.7449 12.2301V12.5879C28.7449 13.363 28.1486 13.9593 27.3734 13.9593H34.8866C34.1114 13.9593 33.5152 13.363 33.5152 12.5879V12.2301C33.5152 11.4549 34.1114 10.8586 34.8866 10.8586Z" fill="#CFDBE5"/>
  <path d="M46.0394 40.3152H17.6562C16.7617 40.3152 15.9866 41.0904 15.9866 41.9848V42.2234C15.9866 43.1178 16.7617 43.893 17.6562 43.893H46.0394C46.9338 43.893 47.709 43.1178 47.709 42.2234V41.9848C47.709 41.0904 46.9338 40.3152 46.0394 40.3152ZM44.7872 47.2918H13.184C12.2896 47.2918 11.5144 48.067 11.5144 48.9614V49.1999C11.5144 50.0943 12.2896 50.8695 13.184 50.8695H44.7872C45.6816 50.8695 46.4568 50.0943 46.4568 49.1999V48.9614C46.4568 48.0073 45.6816 47.2918 44.7872 47.2918ZM52.4793 43.8333H49.6171C48.7226 43.8333 47.9475 44.6085 47.9475 45.5029V45.7414C47.9475 46.6359 48.7226 47.411 49.6171 47.411H52.4793C53.3737 47.411 54.1488 46.6359 54.1488 45.7414V45.5029C54.1488 44.5489 53.3737 43.8333 52.4793 43.8333ZM34.8888 53.1354H26.4216C25.5868 53.1354 24.8712 53.8509 24.8712 54.6857V54.7454C24.8712 55.5802 25.5868 56.2957 26.4216 56.2957H34.8888C35.7236 56.2957 36.4392 55.5802 36.4392 54.7454V54.6857C36.4392 53.8509 35.7833 53.1354 34.8888 53.1354ZM12.5281 40.3152H9.66594C8.77151 40.3152 7.99634 41.0904 7.99634 41.9848V42.2234C7.99634 43.1178 8.77151 43.893 9.66594 43.893H12.5281C13.4225 43.893 14.1977 43.1178 14.1977 42.2234V41.9848C14.1977 41.0904 13.4225 40.3152 12.5281 40.3152Z" fill="#CFDBE5"/>
  <path d="M44.0122 43.8334H18.0737C18.9682 43.8334 19.6241 44.549 19.6241 45.3838V45.8012C19.6241 46.6956 18.9085 47.3515 18.0737 47.3515H44.0122C43.1177 47.3515 42.4618 46.636 42.4618 45.8012V45.3838C42.4022 44.4893 43.1177 43.8334 44.0122 43.8334ZM34.6505 50.81H26.541C27.0776 50.81 27.5547 51.287 27.5547 51.8236V52.0622C27.5547 52.5988 27.0776 53.0758 26.541 53.0758H34.6505C34.1138 53.0758 33.6368 52.5988 33.6368 52.0622V51.8236C33.6368 51.287 34.0542 50.81 34.6505 50.81ZM29.4628 34.1736H19.7433C18.8489 34.1736 18.0737 34.9488 18.0737 35.8432V36.0817C18.0737 36.9761 18.8489 37.7513 19.7433 37.7513H29.5224C30.4168 37.7513 31.192 36.9761 31.192 36.0817V35.8432C31.1324 34.8891 30.4168 34.1736 29.4628 34.1736ZM29.2839 37.7513H20.1011C20.757 37.7513 21.234 38.288 21.234 38.8842V39.1824C21.234 39.8383 20.6974 40.3153 20.1011 40.3153H29.2839C28.628 40.3153 28.151 39.7787 28.151 39.1824V38.8842C28.151 38.2283 28.628 37.7513 29.2839 37.7513Z" fill="#CFDBE5"/>
  <path fill-rule="evenodd" clip-rule="evenodd" d="M52.9549 62.9145V62.8548C52.9549 61.0063 51.166 59.456 48.9001 59.456C46.6939 59.456 44.8454 60.9467 44.8454 62.8548V62.9145C43.2354 63.2722 42.0428 64.4648 42.0428 65.9555C42.0428 67.5059 43.4739 68.9966 45.2628 68.9966H52.776C54.5052 68.9966 55.7574 67.4462 55.7574 65.9555C55.7574 64.4648 54.5648 63.2722 52.9549 62.9145Z" fill="#F5F0D9"/>
  <path fill-rule="evenodd" clip-rule="evenodd" d="M47.7673 61.4237V61.3641C47.7673 59.6945 46.1573 58.323 44.13 58.323C42.1026 58.323 40.4926 59.6945 40.4926 61.3641V61.4237C39.0615 61.7218 37.9286 62.8548 37.9286 64.1666C37.9286 65.5977 39.1808 66.9095 40.8504 66.9095H47.648C49.1984 66.9095 50.3313 65.538 50.3313 64.1666C50.3313 62.8548 49.1984 61.7218 47.7673 61.4237Z" fill="white"/>
  <path d="M20.22 27.4952L33.1594 37.8706L78.0001 48.4845L28.9854 23.1423L20.22 27.4952Z" fill="white"/>
  <path d="M31.6084 24.5135L77.9994 48.4842L31.6084 22.5458V24.5135Z" fill="#45525B"/>
  <path d="M41.2682 18.7297L31.6084 22.546L77.9994 48.4844L57.189 26.0641L41.2682 18.7297Z" fill="white"/>
  <path d="M29.5812 35.068L29.7601 42.1042L77.9996 48.4844L33.3378 37.8705L29.5812 35.068Z" fill="#192E2D"/>
  <path d="M29.0457 36.7972C29.0457 36.7972 28.7476 36.7375 28.3302 36.7375C28.2109 36.7375 28.0917 36.7972 28.0917 36.9761C28.0917 37.0953 28.1513 37.2146 28.3302 37.2146C28.7476 37.2146 28.9861 37.2742 28.9861 37.2742H29.0457C29.165 37.2742 29.2842 37.2146 29.2842 37.0953C29.2842 36.9164 29.2246 36.7972 29.0457 36.7972ZM15.033 46.6359C15.1523 46.6359 15.2715 46.5763 15.2715 46.457C15.3311 46.0396 15.3908 45.5626 15.51 45.1452C15.5697 45.0259 15.4504 44.9067 15.3311 44.847C15.2119 44.7874 15.0926 44.9067 15.033 45.0259C14.9137 45.5029 14.7945 45.9203 14.7349 46.3974C14.8541 46.5166 14.9137 46.6359 15.033 46.6359ZM18.7896 39.5997C18.8492 39.5997 18.9089 39.5997 18.9089 39.5401C19.2666 39.2419 19.6244 39.0631 20.0418 38.9438C20.1611 38.8842 20.2207 38.7649 20.1611 38.6457C20.1014 38.5264 19.9822 38.4668 19.8629 38.5264C19.4455 38.7053 19.0281 38.9438 18.6107 39.2419C18.4915 39.3016 18.4915 39.4805 18.5511 39.5401C18.6703 39.5401 18.73 39.5997 18.7896 39.5997ZM16.8815 41.5675C16.9411 41.5675 16.9411 41.6271 17.0007 41.6271C17.0604 41.6271 17.12 41.5675 17.1796 41.5078C17.4181 41.0904 17.7163 40.7327 17.9548 40.4345C18.0144 40.3153 18.0144 40.196 17.9548 40.1364C17.8355 40.0767 17.7163 40.0767 17.6567 40.1364C17.3585 40.4941 17.12 40.8519 16.8219 41.2693C16.7622 41.3289 16.8219 41.5078 16.8815 41.5675ZM20.817 43.2967C20.817 43.1774 20.6381 43.1178 20.5188 43.1178C20.3996 43.1178 20.3399 43.2967 20.3399 43.4159C20.4592 43.8333 20.5785 44.3104 20.7573 44.7278C20.817 44.847 20.8766 44.9067 20.9959 44.9067H21.0555C21.1747 44.847 21.2344 44.7278 21.1747 44.6085C21.0555 44.1315 20.9362 43.7141 20.817 43.2967ZM15.3311 49.0807C15.2715 48.6633 15.2119 48.1862 15.2119 47.7688C15.2119 47.6496 15.0926 47.5303 14.9734 47.5303C14.8541 47.5303 14.7349 47.6496 14.7349 47.7688C14.7349 48.2459 14.7945 48.7229 14.8541 49.1403C14.8541 49.2595 14.9734 49.3192 15.0926 49.3192H15.1523C15.2715 49.3192 15.3311 49.1999 15.3311 49.0807ZM21.1151 57.8461C20.7573 57.5479 20.3996 57.2498 20.1014 56.9516C19.9822 56.892 19.8629 56.892 19.8033 56.9516C19.7437 57.0709 19.7437 57.1901 19.8033 57.2498L20.8766 58.1442C20.9362 58.2038 20.9959 58.2038 20.9959 58.2038C21.0555 58.2038 21.1151 58.2038 21.1747 58.1442C21.2344 58.0249 21.2344 57.9057 21.1151 57.8461ZM18.2529 55.0435C18.1933 54.9243 18.0144 54.9243 17.9548 55.0435C17.8355 55.1031 17.8355 55.282 17.9548 55.3417C18.2529 55.6994 18.5511 56.0572 18.9089 56.3553C18.9685 56.415 19.0281 56.415 19.0877 56.415C19.1474 56.415 19.207 56.415 19.2666 56.3553C19.3859 56.2957 19.3859 56.1168 19.2666 56.0572C18.7896 55.6994 18.4915 55.3417 18.2529 55.0435ZM16.7026 52.8373C16.643 52.718 16.5237 52.718 16.4045 52.7776C16.2852 52.8373 16.2852 52.9565 16.3448 53.0758C16.5833 53.4932 16.8219 53.8509 17.0604 54.2683C17.12 54.328 17.1796 54.3876 17.2393 54.3876C17.2989 54.3876 17.3585 54.3876 17.3585 54.328C17.4778 54.2683 17.4778 54.0895 17.4181 54.0298C17.12 53.6124 16.8815 53.195 16.7026 52.8373ZM15.6293 50.3925C15.5697 50.2732 15.4504 50.2136 15.3311 50.2136C15.2119 50.2732 15.1523 50.3925 15.1523 50.5117C15.2715 50.9291 15.4504 51.4062 15.6293 51.8236C15.6889 51.8832 15.7485 51.9428 15.8678 51.9428H15.9871C16.1063 51.8832 16.1659 51.7639 16.1063 51.6447C15.9274 51.2273 15.7485 50.8099 15.6293 50.3925ZM23.0232 37.8705H23.1425C23.5003 37.6916 23.9177 37.5723 24.3947 37.4531C24.5139 37.4531 24.5736 37.2742 24.5736 37.1549C24.5736 37.0357 24.3947 36.9761 24.2754 36.9761C23.7984 37.0953 23.3214 37.2146 22.9636 37.3935C22.8443 37.4531 22.7847 37.5723 22.8443 37.6916C22.8443 37.8109 22.904 37.8705 23.0232 37.8705ZM30.3575 49.9751C30.2383 49.9751 30.119 50.0347 30.119 50.154C30.0594 50.631 29.9998 51.0484 29.8805 51.4658C29.8209 51.5851 29.9401 51.7043 30.0594 51.7639H30.119C30.2383 51.7639 30.2979 51.7043 30.3575 51.5851C30.4768 51.1677 30.5364 50.6906 30.5961 50.2136C30.5961 50.0943 30.4768 49.9751 30.3575 49.9751ZM28.7476 43.8333C28.8072 43.893 28.8668 43.893 28.9265 43.893C28.9861 43.893 29.0457 43.893 29.0457 43.8333C29.165 43.7737 29.165 43.5948 29.1053 43.5352L28.2109 42.4619C28.1513 42.3426 27.9724 42.3426 27.9128 42.4619C27.7935 42.5215 27.7935 42.7004 27.9128 42.76C28.2109 43.1178 28.4494 43.4756 28.7476 43.8333ZM29.8209 46.2185C29.8209 46.3377 29.9401 46.3974 30.0594 46.3974H30.119C30.2383 46.3377 30.2979 46.2185 30.2979 46.0992C30.1787 45.6222 30.0594 45.1452 29.8805 44.7874C29.8209 44.6681 29.7016 44.6085 29.5824 44.6681C29.4631 44.7278 29.4035 44.847 29.4631 44.9663C29.5824 45.3241 29.7016 45.7415 29.8209 46.2185ZM30.0594 47.5303C30.119 47.9477 30.119 48.4247 30.1787 48.8421C30.1787 48.9614 30.2979 49.0807 30.4172 49.0807C30.5364 49.0807 30.6557 48.9614 30.6557 48.8421C30.6557 48.3651 30.5961 47.8881 30.5364 47.4707C30.5364 47.3514 30.4172 47.2322 30.2979 47.2918C30.119 47.2918 30.0594 47.4111 30.0594 47.5303ZM40.1963 62.5567H41.5677C41.687 62.5567 41.8062 62.4375 41.8062 62.3182C41.8062 62.1989 41.687 62.0797 41.5677 62.0797H40.1963C40.077 62.0797 39.9578 62.1989 39.9578 62.3182C40.0174 62.4375 40.077 62.5567 40.1963 62.5567ZM20.1611 41.9849C20.1611 42.1041 20.2803 42.2234 20.3996 42.2234C20.5188 42.2234 20.6381 42.1041 20.6381 41.9849V41.6271C20.6381 41.3289 20.6381 41.0308 20.6977 40.7327C20.6977 40.6134 20.6381 40.4941 20.5188 40.4345C20.3996 40.4345 20.2803 40.4941 20.2207 40.6134C20.1611 40.9115 20.1014 41.2693 20.1014 41.6271C20.1611 41.7463 20.1611 41.8656 20.1611 41.9849ZM26.3028 40.4941C26.1835 40.4345 26.0643 40.4345 26.0047 40.4941C25.945 40.6134 25.945 40.7327 26.0047 40.7923C26.3028 41.0904 26.6606 41.3886 26.9587 41.7463C27.0183 41.806 27.078 41.806 27.1376 41.806C27.1972 41.806 27.2569 41.806 27.3165 41.7463C27.4357 41.6867 27.4357 41.5078 27.3165 41.4482C26.9587 41.1501 26.6606 40.7923 26.3028 40.4941ZM22.1288 47.3514H22.2481C22.3673 47.2918 22.4269 47.1725 22.3673 47.0533C22.1288 46.6359 21.9499 46.2185 21.771 45.8607C21.7114 45.7415 21.5921 45.6818 21.4729 45.7415C21.3536 45.8011 21.294 45.9203 21.3536 46.0396C21.5325 46.457 21.771 46.8744 21.9499 47.2918C22.0095 47.2918 22.0692 47.3514 22.1288 47.3514ZM20.817 39.5401C20.8766 39.5401 20.8766 39.5997 20.9362 39.5997C20.9959 39.5997 21.1151 39.5401 21.1151 39.4805C21.294 39.1823 21.5325 38.9438 21.771 38.7053C22.0095 38.7053 22.3077 38.7649 22.6058 38.8842C22.7251 38.9438 22.8443 38.8245 22.904 38.7053C22.9636 38.586 22.8443 38.4668 22.7251 38.4071C22.4866 38.3475 22.2481 38.2879 22.0095 38.2879V38.2283C21.9499 38.109 21.771 38.109 21.7114 38.1686C21.7114 38.1686 21.6518 38.1686 21.6518 38.2283H21.3536C21.2344 38.2283 21.1151 38.3475 21.1151 38.4668C21.1151 38.5264 21.1747 38.6457 21.2344 38.6457C21.0555 38.8245 20.8766 39.0631 20.7573 39.2419C20.6977 39.3612 20.6977 39.4805 20.817 39.5401ZM25.6469 37.2146C26.1239 37.1549 26.5413 37.1549 27.0183 37.1549C27.1376 37.1549 27.2569 37.0357 27.2569 36.9164C27.2569 36.7972 27.1376 36.6779 27.0183 36.6779C26.5413 36.6779 26.0643 36.7375 25.6469 36.7375C25.5276 36.7375 25.4084 36.8568 25.468 36.9761C25.4084 37.1549 25.5276 37.2146 25.6469 37.2146ZM15.6889 44.0122H15.7485C15.8678 44.0122 15.9274 43.9526 15.9871 43.893C16.1659 43.4756 16.3448 43.0582 16.5237 42.7004C16.5833 42.5811 16.5237 42.4619 16.4045 42.4023C16.2852 42.3426 16.1659 42.4023 16.1063 42.5215C15.9274 42.9389 15.6889 43.3563 15.51 43.7737C15.51 43.8333 15.5697 43.9526 15.6889 44.0122ZM42.2833 74.3632C41.9255 74.6017 41.5677 74.8998 41.1503 75.1383C41.0311 75.198 41.0311 75.3172 41.0907 75.4365C41.1503 75.4961 41.2099 75.5557 41.2696 75.5557C41.3292 75.5557 41.3292 75.5557 41.3888 75.4961C41.8062 75.2576 42.164 74.9594 42.5218 74.7209C42.641 74.6613 42.641 74.4824 42.5814 74.4228C42.5218 74.3035 42.4025 74.3035 42.2833 74.3632ZM44.251 62.8549C44.3703 62.8549 44.4299 62.7952 44.4895 62.676C44.5491 62.5567 44.4299 62.4375 44.3106 62.3778C43.8932 62.2586 43.4162 62.1989 42.9392 62.1393C42.8199 62.1393 42.7007 62.1989 42.7007 62.3182C42.7007 62.4375 42.7603 62.5567 42.8795 62.5567C43.3566 62.6163 43.774 62.676 44.1914 62.7952L44.251 62.8549ZM44.3106 72.6339C44.0125 72.9321 43.7143 73.2899 43.3566 73.588C43.2373 73.6476 43.2373 73.8265 43.3566 73.8861C43.4162 73.9458 43.4758 73.9458 43.5355 73.9458C43.5951 73.9458 43.6547 73.9458 43.7143 73.8861C44.0721 73.588 44.4299 73.2302 44.728 72.9321C44.7877 72.8128 44.7877 72.6936 44.728 72.6339C44.5492 72.5147 44.3703 72.5147 44.3106 72.6339ZM39.0633 62.3778C39.0633 62.2586 38.9441 62.1393 38.8248 62.1393C38.4074 62.1989 37.99 62.1989 37.4533 62.2586C37.3341 62.2586 37.2148 62.3778 37.2745 62.4971C37.2745 62.6163 37.3937 62.676 37.513 62.676C38.0496 62.6163 38.467 62.6163 38.8844 62.5567C39.0037 62.6163 39.0633 62.4971 39.0633 62.3778ZM40.0174 75.7943C39.6 76.0328 39.2422 76.2117 38.8248 76.3905C38.7055 76.4502 38.6459 76.5694 38.7055 76.6887C38.7652 76.7483 38.8248 76.8079 38.8844 76.8079H39.0037C39.4211 76.629 39.8385 76.3905 40.2559 76.2116C40.3752 76.152 40.4348 76.0328 40.3751 75.9135C40.2559 75.7942 40.077 75.7346 40.0174 75.7943ZM46.9939 65.1207C46.8747 65.1207 46.815 65.2996 46.815 65.4189C46.8747 65.7767 46.9343 66.1344 46.9343 66.5518V66.6711C46.9343 66.7903 46.9939 66.9096 47.1132 66.9096C47.2324 66.9096 47.3517 66.7903 47.3517 66.6711V66.5518C47.3517 66.0748 47.2921 65.6574 47.2324 65.2996C47.2324 65.1804 47.1132 65.0611 46.9939 65.1207ZM46.2188 70.3681C46.0995 70.3084 45.9802 70.3681 45.9206 70.4277C45.7417 70.7855 45.4436 71.2029 45.2051 71.5606C45.1454 71.6799 45.1454 71.7991 45.2647 71.8588C45.3243 71.9184 45.3839 71.9184 45.3839 71.9184C45.4436 71.9184 45.5032 71.8588 45.5628 71.7991C45.861 71.4414 46.0995 71.024 46.338 70.6066C46.338 70.6066 46.2784 70.4277 46.2188 70.3681ZM36.1415 62.4375C35.6645 62.4971 35.2471 62.5567 34.7701 62.5567C34.6508 62.5567 34.5316 62.676 34.5912 62.7952C34.5912 62.9145 34.7104 62.9741 34.8297 62.9741C35.3067 62.9145 35.7241 62.9145 36.2011 62.8549C36.3204 62.8549 36.4397 62.7356 36.38 62.6163C36.38 62.4971 36.2608 62.4375 36.1415 62.4375ZM47.0535 67.804C46.9343 67.804 46.815 67.8637 46.815 67.9829C46.7554 68.4003 46.6361 68.8177 46.4573 69.2351C46.3976 69.3544 46.4573 69.4736 46.5765 69.5333H46.6361C46.7554 69.5333 46.815 69.4736 46.8747 69.3544C47.0535 68.937 47.1728 68.4599 47.2324 67.9829C47.2324 67.9829 47.1728 67.8637 47.0535 67.804ZM46.6361 64.2859C46.7554 64.2263 46.7554 64.0474 46.6958 63.9878C46.3976 63.5704 46.0995 63.2723 45.6225 62.9741C45.5032 62.9145 45.384 62.9145 45.3243 63.0337C45.2647 63.153 45.2647 63.2723 45.3839 63.3319C45.7417 63.5704 46.0399 63.8685 46.2784 64.1667C46.338 64.2263 46.3976 64.2859 46.4573 64.2859C46.5169 64.3456 46.5765 64.2859 46.6361 64.2859ZM25.7065 60.7082C25.2891 60.5293 24.9313 60.2908 24.5139 60.0523C24.3947 59.9927 24.2754 60.0523 24.2158 60.1119C24.1562 60.2312 24.2158 60.3505 24.2754 60.4101C24.6928 60.6486 25.1102 60.8275 25.468 61.066H25.5873C25.6469 61.066 25.7661 61.0064 25.7661 60.9467C25.8258 60.8871 25.8258 60.7679 25.7065 60.7082ZM23.3214 59.3964C22.9636 59.1579 22.5462 58.9194 22.1884 58.6212C22.0692 58.5616 21.9499 58.5616 21.8903 58.6809C21.8307 58.8001 21.8307 58.9194 21.9499 58.979C22.3077 59.2175 22.7251 59.5157 23.0829 59.7542C23.1425 59.7542 23.1425 59.8138 23.2021 59.8138C23.2617 59.8138 23.381 59.7542 23.381 59.6945C23.4406 59.5753 23.4406 59.456 23.3214 59.3964ZM25.1102 40.0767C25.1699 40.0767 25.2295 40.0171 25.2891 39.9575C25.3487 39.8382 25.3487 39.719 25.2295 39.6593C24.8121 39.3612 24.4543 39.1227 24.0369 38.9438C23.9177 38.8842 23.7984 38.9438 23.7388 39.0631C23.6791 39.1823 23.7388 39.3016 23.858 39.3612C24.2158 39.5401 24.6332 39.7786 24.991 40.0767H25.1102ZM25.1699 51.8832C25.2295 51.8832 25.2891 51.8832 25.2891 51.8236C25.4084 51.7639 25.4084 51.5851 25.2891 51.5254C25.0506 51.2273 24.7525 50.8695 24.4543 50.4521C24.3947 50.3329 24.2158 50.3329 24.1562 50.3925C24.0369 50.4521 24.0369 50.631 24.0965 50.6906C24.3947 51.108 24.6928 51.4658 24.9313 51.7639C25.0506 51.8236 25.1102 51.8832 25.1699 51.8832ZM23.0232 48.1862C22.9636 48.067 22.8443 48.067 22.7251 48.1266C22.6058 48.1862 22.6058 48.3055 22.6655 48.4247C22.904 48.8421 23.1425 49.1999 23.381 49.5577C23.4406 49.6173 23.5003 49.6769 23.5599 49.6769C23.6195 49.6769 23.6195 49.6769 23.6791 49.6173C23.7984 49.5577 23.7984 49.3788 23.7388 49.3192C23.5003 48.9614 23.2617 48.6036 23.0232 48.1862ZM28.1513 61.7815C27.7339 61.6623 27.3165 61.4834 26.8991 61.3045C26.7798 61.2449 26.6606 61.3045 26.6009 61.4238C26.5413 61.543 26.6009 61.6623 26.7202 61.7219C27.1376 61.9008 27.555 62.0797 28.032 62.1989H28.0917C28.2109 62.1989 28.2706 62.1393 28.3302 62.0201C28.3302 61.9604 28.2705 61.8412 28.1513 61.7815ZM27.1972 53.6124C27.2569 53.6124 27.3761 53.5528 27.3761 53.4932C27.4357 53.3739 27.3761 53.2547 27.2569 53.195C26.8991 53.0161 26.6009 52.7776 26.1835 52.4199C26.0643 52.3602 25.945 52.3602 25.8854 52.4199C25.8258 52.5391 25.8258 52.6584 25.8854 52.718C26.3028 53.0758 26.6606 53.3739 27.0183 53.5528C27.1376 53.6124 27.1972 53.6124 27.1972 53.6124ZM30.7749 62.4971C30.3575 62.4375 29.9401 62.3182 29.4631 62.1989C29.3439 62.1393 29.2246 62.2586 29.165 62.3778C29.1053 62.4971 29.2246 62.6163 29.3439 62.676C29.8209 62.7952 30.2383 62.9145 30.7153 62.9741H30.7749C30.8942 62.9741 30.9538 62.9145 31.0135 62.7952C30.9538 62.6163 30.8942 62.4971 30.7749 62.4971ZM29.7613 52.8969C29.8209 52.7776 29.8209 52.6584 29.7016 52.5987C29.5824 52.5391 29.4631 52.5391 29.4035 52.6584C29.165 53.0758 28.8668 53.3143 28.5091 53.3739C28.3898 53.4335 28.3302 53.5528 28.3302 53.6721C28.3302 53.7913 28.4494 53.8509 28.5687 53.8509H28.6283C29.0457 53.7317 29.4631 53.4335 29.7613 52.8969ZM33.3986 62.676H32.0868C31.9675 62.676 31.8483 62.7356 31.8483 62.9145C31.8483 63.0337 31.9079 63.153 32.0868 63.153H33.4582C33.5775 63.153 33.6968 63.0337 33.6968 62.9145C33.6371 62.7356 33.5179 62.676 33.3986 62.676Z" fill="#45525B"/>
  <path d="M37.5119 76.9867C37.0945 77.1656 36.856 77.2252 36.856 77.2252C36.7368 77.2849 36.6771 77.4041 36.7368 77.5234C36.7964 77.6426 36.856 77.7023 36.9753 77.7023H37.0349C37.0349 77.7023 37.2734 77.6426 37.6908 77.4637C37.8101 77.4041 37.8697 77.2849 37.8101 77.1656C37.8101 76.9867 37.6312 76.9271 37.5119 76.9867Z" fill="#45525B"/>
  <path fill-rule="evenodd" clip-rule="evenodd" d="M57.7272 11.0968V11.0372C57.7272 9.18871 55.9384 7.63837 53.6725 7.63837C51.4066 7.63837 49.6177 9.12908 49.6177 11.0372V11.0968C48.0078 11.4546 46.8152 12.6472 46.8152 14.1379C46.8152 15.6882 48.2463 17.1789 50.0351 17.1789H57.5483C59.2776 17.1789 60.5298 15.6286 60.5298 14.1379C60.5298 12.6472 59.3372 11.4546 57.7272 11.0968Z" fill="#F5F0D9"/>
  <path fill-rule="evenodd" clip-rule="evenodd" d="M52.5395 9.60642V9.54679C52.5395 7.87719 50.9296 6.50574 48.9022 6.50574C46.8748 6.50574 45.2648 7.87719 45.2648 9.54679V9.60642C43.8337 9.90456 42.7008 11.0375 42.7008 12.3493C42.7008 13.7804 43.953 15.0922 45.6226 15.0922H52.4203C53.9706 15.0922 55.1035 13.7208 55.1035 12.3493C55.1035 11.0375 54.0302 9.90456 52.5395 9.60642Z" fill="white"/>
  <path fill-rule="evenodd" clip-rule="evenodd" d="M17.7156 22.0093V21.9497C17.7156 20.5782 16.4037 19.5049 14.7938 19.5049C13.1838 19.5049 11.872 20.5782 11.872 21.9497V22.0093C10.739 22.2478 9.8446 23.1422 9.8446 24.1559C9.8446 25.2889 10.8583 26.3622 12.1701 26.3622H17.5367C18.7889 26.3622 19.6833 25.2292 19.6833 24.1559C19.7429 23.1422 18.9081 22.2478 17.7156 22.0093Z" fill="#F5F0D9"/>
  <path fill-rule="evenodd" clip-rule="evenodd" d="M14.0171 20.9359C14.0171 19.6837 12.8245 18.67 11.3934 18.67C9.96232 18.7297 8.76975 19.6837 8.76975 20.8763V20.9359C7.69644 21.1744 6.92126 21.9496 6.92126 22.9037C6.92126 23.9174 7.81569 24.8714 9.00826 24.8714H13.8978C15.0307 24.8714 15.8059 23.8577 15.8059 22.9037C15.8655 21.9496 15.0904 21.1744 14.0171 20.9359Z" fill="white"/>
</svg>